<svg xmlns="http://www.w3.org/2000/svg" version="1.1" xmlns:xlink="http://www.w3.org/1999/xlink" xmlns:svgjs="http://svgjs.dev/svgjs" width="1440" height="560" preserveAspectRatio="none" viewBox="0 0 1440 560"><g mask="url(&quot;#SvgjsMask1002&quot;)" fill="none"><rect width="1440" height="560" x="0" y="0" fill="url(&quot;#SvgjsLinearGradient1003&quot;)"></rect><path d="M1440 0L960.23 0L1440 255.84z" fill="rgba(255, 255, 255, .1)"></path><path d="M960.23 0L1440 255.84L1440 363.54L880.86 0z" fill="rgba(255, 255, 255, .075)"></path><path d="M880.86 0L1440 363.54L1440 481.69000000000005L535.85 0z" fill="rgba(255, 255, 255, .05)"></path><path d="M535.85 0L1440 481.69000000000005L1440 514.0100000000001L319.81000000000006 0z" fill="rgba(255, 255, 255, .025)"></path><path d="M0 560L481.92 560L0 425.73z" fill="rgba(0, 0, 0, .1)"></path><path d="M0 425.73L481.92 560L656.64 560L0 284.54z" fill="rgba(0, 0, 0, .075)"></path><path d="M0 284.53999999999996L656.64 560L666.05 560L0 246.61999999999995z" fill="rgba(0, 0, 0, .05)"></path><path d="M0 246.61999999999995L666.05 560L722.4 560L0 115.37999999999994z" fill="rgba(0, 0, 0, .025)"></path></g><defs><mask id="SvgjsMask1002"><rect width="1440" height="560" fill="#ffffff"></rect></mask><linearGradient x1="15.28%" y1="-39.29%" x2="84.72%" y2="139.29%" gradientUnits="userSpaceOnUse" id="SvgjsLinearGradient1003"><stop stop-color="#0e2a47" offset="0"></stop><stop stop-color="#00459e" offset="1"></stop></linearGradient></defs></svg>